Coordinates
version=1
nRows=14
nColumns=36
inDegrees=yes

Units are S.I. units (second, meters, Newtons, ...)
If the header above contains a line with 'inDegrees', this indicates whether rotational values are in degrees (yes) or radians (no).

endheader
time	pelvis_tilt	pelvis_list	pelvis_rotation	pelvis_tx	pelvis_ty	pelvis_tz	hip_flexion_r	hip_adduction_r	hip_rotation_r	knee_angle_r	knee_angle_r_beta	ankle_angle_r	subtalar_angle_r	mtp_angle_r	hip_flexion_l	hip_adduction_l	hip_rotation_l	knee_angle_l	knee_angle_l_beta	ankle_angle_l	subtalar_angle_l	mtp_angle_l	lumbar_extension	lumbar_bending	lumbar_rotation	arm_flex_r	arm_add_r	arm_rot_r	elbow_flex_r	pro_sup_r	arm_flex_l	arm_add_l	arm_rot_l	elbow_flex_l	pro_sup_l
      9.55000000	     -4.17999898	      1.43555374	     -0.48699666	      0.06508824	      0.95162723	      0.04444235	      5.34833351	     -6.49023080	      0.57052895	      4.22084752	      0.07366769	     10.65520384	      4.20312342	     -7.49999987	      2.91738292	     -5.46579730	     -0.93587499	      0.74917637	      0.01307559	      6.01940108	      0.63847115	     -7.49999987	      2.17013850	     -0.49073337	      9.80252918	     82.02035364	      9.91767639	     58.83802347	    136.36819409	    110.03641328	     99.59230556	     14.26461553	     62.65152151	    127.52723594	    103.62394640
      9.56666670	     -4.26366040	      1.42504516	     -0.53468763	      0.06306598	      0.95063086	      0.04471079	      5.36338245	     -6.44121366	      1.08254367	      4.00930216	      0.06997552	      9.94162971	      3.26815382	     -7.49999987	      3.02243274	     -5.46609175	     -1.22330661	      0.71449605	      0.01247031	      5.90705528	      0.81442934	     -7.49999987	      1.93835971	     -0.52813068	     10.39617442	     82.26654247	      8.92644841	     58.97636101	    136.55240233	    110.51880592	    100.16523045	     14.07120137	     63.74828993	    126.41093356	    106.38578849
      9.58333330	     -4.38280464	      1.48127083	     -0.51599591	      0.06416310	      0.95140446	      0.04468102	      5.50791308	     -6.49064636	      1.08018334	      4.08631770	      0.07131970	      9.79581563	      3.29335369	     -7.49999987	      3.14692420	     -5.40804291	     -1.28424892	      0.70291154	      0.01226812	      5.64847079	      0.92404799	     -7.49999987	      2.00049440	     -0.67461699	      9.96006726	     82.83101462	     10.07800949	     59.15510291	    136.12547086	    109.92753211	    100.24779513	     14.49264065	     63.28434280	    127.58956337	    107.12171203
      9.60000000	     -4.51093171	      1.49395442	     -0.37639731	      0.06442266	      0.95057017	      0.04328771	      5.63427224	     -6.51693297	      0.97220445	      4.14407049	      0.07232767	      9.65211346	      3.19664828	     -7.49999987	      3.33220803	     -5.36964577	     -1.21373573	      0.73849118	      0.01288910	      5.47898412	      0.91697470	     -7.49999987	      2.27130756	     -0.72882418	      9.40855552	     83.82784231	     11.71913178	     58.88166925	    135.73482465	    110.22670132	    100.39469366	     15.42031245	     61.39491162	    129.41043486	    106.85313607
      9.61666670	     -4.63362146	      1.57240342	     -0.34189436	      0.06143330	      0.95214518	      0.04365675	      5.87226597	     -6.62071142	      0.92432947	      4.21148868	      0.07350434	      9.29999466	      3.13240800	     -7.49999987	      3.56731390	     -5.28062293	     -1.22375193	      0.75398161	      0.01315946	      5.01247028	      0.79996385	     -7.49999987	      2.26624723	     -0.85062253	      8.88146776	     84.71113343	     12.73820181	     58.26070232	    134.42985194	    110.36727273	    100.51200878	     15.43582951	     59.75364175	    130.17366483	    106.17875978
      9.63333330	     -4.75719732	      1.62966929	     -0.28754264	      0.06200195	      0.95219186	      0.04352637	      6.08859694	     -6.68291495	      0.87969173	      4.27309135	      0.07457951	      8.96404317	      3.01470194	     -7.49999987	      3.76242417	     -5.21346780	     -1.42427403	      0.74859863	      0.01306551	      4.76506398	      1.03330669	     -7.49999987	      2.15559556	     -0.89849944	      8.24669921	     84.89923337	     13.19189482	     58.11469131	    133.20602159	    110.33298691	    100.37099178	     14.48635822	     59.48412089	    130.54227982	    106.40312058
      9.65000000	     -4.98904969	      1.67249498	     -0.21045037	      0.05813476	      0.95234667	      0.04404181	      6.59251436	     -6.74071031	      0.57571483	      4.50513255	      0.07862940	      8.88198336	      3.31229350	     -7.49999987	      4.13324202	     -5.17012310	     -1.72305277	      0.76809213	      0.01340574	      4.68355594	      1.49194431	     -7.49999987	      2.07454797	     -0.90106332	      7.26112274	     85.09687350	     13.56083069	     58.45547133	    132.66240726	    110.39673076	    100.55272364	     13.01934332	     60.21516261	    130.00455122	    104.84563106
      9.66666670	     -5.15238422	      1.68668229	     -0.12412147	      0.05881471	      0.95314126	      0.04407710	      7.07856815	     -6.74204322	      0.85169845	      4.84700256	      0.08459615	      8.63576639	      2.62935910	     -7.49999987	      4.47575370	     -5.14854657	     -1.41450935	      0.89098065	      0.01555055	      4.38655734	      0.97688039	     -7.49999987	      1.55164071	     -0.89681953	      6.85152098	     85.68259968	     13.36073380	     58.76566563	    131.01054163	    110.13517211	    101.29023540	     12.23127157	     59.99018533	    130.15375862	    106.14761341
      9.68333330	     -5.29167295	      1.74196130	     -0.10690520	      0.05646327	      0.95344668	      0.04338750	      7.62370326	     -6.82622252	      0.68844369	      5.29903441	      0.09248560	      8.71384489	      2.81092151	     -7.49999987	      4.83676638	     -5.09353465	     -1.45212711	      1.07003946	      0.01867571	      4.20029657	      0.93998857	     -7.49999987	      1.00622445	     -0.95334086	      6.64926426	     86.14663628	     12.46892353	     58.96695233	    128.31403814	    109.58982421	    102.08637597	     11.16845032	     60.34294251	    129.82834169	    104.77792777
      9.70000000	     -5.37096517	      1.81602231	      0.01669782	      0.05123640	      0.95589531	      0.04478072	      8.20427203	     -6.89807905	      0.76840136	      5.88786581	      0.10276264	      8.65840789	      2.45249823	     -7.49999987	      5.38441111	     -5.02580308	     -0.68771679	      1.50488796	      0.02626525	      3.69156172	     -0.21201508	     -7.49999987	      0.33932297	     -1.08809779	      6.16653233	     86.73382556	     12.07321604	     59.82305035	    126.84976564	    103.25379717	    102.54875374	     10.07067538	     60.82762514	    130.10156089	     98.29453683
      9.71666670	     -5.67727498	      1.89041414	     -0.04796029	      0.04908760	      0.95616345	      0.04483842	      9.12314277	     -6.95099361	      1.01805297	      6.60425816	      0.11526605	      8.66524803	      2.11053923	     -7.49999987	      6.23599946	     -5.01151504	     -1.07057646	      2.15460067	      0.03760488	      4.00566985	      0.46016053	     -7.49999987	     -0.04414933	     -1.16186615	      6.45864865	     86.95888343	     10.43966838	     60.55896016	    124.47645271	    108.55245452	    103.12385515	      9.40254063	     61.42595934	    129.58612270	    104.94649817
      9.73333330	     -5.97996002	      2.02627402	     -0.12836091	      0.04477174	      0.95308180	      0.04534955	     10.25335690	     -7.07409049	      1.17458540	      7.54665310	      0.13171394	      8.71707227	      1.79317624	     -7.49999987	      7.24207832	     -4.92642848	     -1.19797784	      3.00064968	      0.05237122	      4.04488851	      0.24000512	     -7.49999987	     -0.94809636	     -1.39630154	      6.21250164	     88.22574045	     10.18239660	     61.24580511	    123.01594730	    107.66408228	    104.53933664	      8.89052366	     63.26630336	    128.28534073	    104.63326850
      9.75000000	     -6.30769837	      2.15914189	     -0.14988882	      0.03960231	      0.95158667	      0.04644960	     11.46729647	     -7.20139189	      1.20806236	      8.51702606	      0.14865015	      8.92317282	      1.68790516	     -7.49999987	      8.38477677	     -4.86939753	     -1.26018468	      3.88615613	      0.06782622	      4.27992194	     -0.00330742	     -7.49999987	     -1.71530896	     -1.70534340	      6.14366941	     89.60701501	     10.01950836	     61.68779790	    123.04465457	    107.08560580	    106.04935066	      8.64752199	     64.41336803	    127.20767883	    104.45191835
      9.76666670	     -6.72078033	      2.32034961	     -0.01019630	      0.03798549	      0.95015949	      0.04520044	     12.97507086	     -7.42012672	      1.15385357	     10.02186969	      0.17491462	      9.24827162	      1.48583987	     -7.49999987	      9.76886822	     -4.76149362	     -1.30079490	      5.12427671	      0.08943550	      4.63893626	     -0.38190859	     -7.49999987	     -2.35093894	     -1.99360273	      5.81632725	     90.90072597	      9.80965469	     61.96140376	    123.57485168	    106.58597735	    107.66871815	      8.21407933	     66.21718082	    126.04246094	    104.08423691
